# xmcd
#
# Track frame offsets: 
#        150
#        36134
#        80632
#        116083
#        139686
#        174365
#        211753
#
# Disc length: 3273 seconds
#
# Revision: 1
# Processed by: cddbd v1.5.2PL0 Copyright (c) Steve Scherf et al.
# Submitted via: ExactAudioCopy v0.95b4
#
DISCID=580cc707
DTITLE=Sonny Rollins - Sonny, Please
DYEAR=2006
DGENRE=Jazz
TTITLE0=Sonny, Please
TTITLE1=Someday I'll Find You
TTITLE2=Nishi
TTITLE3=Stairway to the stars
TTITLE4=Remembering Tommy
TTITLE5=Serenade
TTITLE6=Park Palace Parade
EXTD=YEAR: 2006
EXTT0=
EXTT1=
EXTT2=
EXTT3=
EXTT4=
EXTT5=
EXTT6=
PLAYORDER=
